<svg width="18" height="16" viewBox="0 0 18 16" fill="none" xmlns="http://www.w3.org/2000/svg">
<g clip-path="url(#clip0_5221_8000)">
<path d="M0.961218 0.421431C0.884069 0.420436 0.80764 0.43634 0.737296 0.468026C0.666952 0.499713 0.604395 0.546413 0.554019 0.604849C0.503643 0.663288 0.466669 0.732037 0.445693 0.806285C0.424717 0.880532 0.420248 0.958467 0.432599 1.03463L2.67658 14.6571C2.70454 14.8238 2.79034 14.9754 2.91892 15.0851C3.04749 15.1948 3.21062 15.2557 3.37965 15.2571H14.145C14.2716 15.2587 14.3947 15.2148 14.4918 15.1333C14.5888 15.0518 14.6533 14.9382 14.6736 14.8131L16.9228 1.03991C16.9352 0.963758 16.9307 0.885815 16.9098 0.811575C16.8888 0.737328 16.8518 0.668572 16.8014 0.610135C16.7511 0.551699 16.6885 0.504999 16.6182 0.473313C16.5478 0.441626 16.4714 0.425722 16.3942 0.426717L0.961218 0.421431ZM10.4103 10.267H6.97425L6.04388 5.40894H11.2428L10.4103 10.267Z" fill="#2684FF"/>
<path d="M16.2048 5.40869H11.2437L10.4111 10.2667H6.97511L2.91797 15.085C3.04656 15.1962 3.21051 15.2581 3.38051 15.2595H14.1485C14.2752 15.2611 14.3982 15.2172 14.4953 15.1357C14.5923 15.0541 14.6568 14.9405 14.6771 14.8154L16.2048 5.40869Z" fill="url(#paint0_linear_5221_8000)"/>
</g>
<defs>
<linearGradient id="paint0_linear_5221_8000" x1="17.3519" y1="6.76724" x2="9.15304" y2="13.1688" gradientUnits="userSpaceOnUse">
<stop offset="0.18" stop-color="#0052CC"/>
<stop offset="1" stop-color="#2684FF"/>
</linearGradient>
<clipPath id="clip0_5221_8000">
<rect width="17.0667" height="15.5826" fill="white"/>
</clipPath>
</defs>
</svg>
