<svg width="12" height="18" viewBox="0 0 12 18" fill="none" xmlns="http://www.w3.org/2000/svg">
<g clip-path="url(#clip0_5221_3782)">
<path d="M2.88138 17.2769C4.47082 17.2769 5.7608 15.9869 5.7608 14.3975V11.5181H2.88138C1.29194 11.5181 0.00195312 12.808 0.00195312 14.3975C0.00195312 15.9869 1.29194 17.2769 2.88138 17.2769Z" fill="#0ACF83"/>
<path d="M0.00195312 8.63821C0.00195312 7.04877 1.29194 5.75879 2.88138 5.75879H5.7608V11.5176H2.88138C1.29194 11.5176 0.00195312 10.2277 0.00195312 8.63821Z" fill="#A259FF"/>
<path d="M0.00195312 2.87942C0.00195312 1.28998 1.29194 0 2.88138 0H5.7608V5.75885H2.88138C1.29194 5.75885 0.00195312 4.46887 0.00195312 2.87942Z" fill="#F24E1E"/>
<path d="M5.75977 0H8.63919C10.2286 0 11.5186 1.28998 11.5186 2.87942C11.5186 4.46887 10.2286 5.75885 8.63919 5.75885H5.75977V0Z" fill="#FF7262"/>
<path d="M11.5186 8.63821C11.5186 10.2277 10.2286 11.5176 8.63919 11.5176C7.04975 11.5176 5.75977 10.2277 5.75977 8.63821C5.75977 7.04877 7.04975 5.75879 8.63919 5.75879C10.2286 5.75879 11.5186 7.04877 11.5186 8.63821Z" fill="#1ABCFE"/>
</g>
<defs>
<clipPath id="clip0_5221_3782">
<rect width="11.52" height="17.2765" fill="white"/>
</clipPath>
</defs>
</svg>
