<svg width="18" height="18" viewBox="0 0 18 18" fill="none" xmlns="http://www.w3.org/2000/svg">
<g clip-path="url(#clip0_5221_870)">
<path d="M3.69719 0H13.3695C15.41 0 17.0667 1.65666 17.0667 3.69719V13.3695C17.0667 15.41 15.41 17.0667 13.3695 17.0667H3.69719C1.65666 17.0667 0 15.41 0 13.3695V3.69719C0 1.65666 1.65666 0 3.69719 0Z" fill="#FFD02F"/>
<path d="M11.8595 2.13135H9.98561L11.5464 4.87393L8.11178 2.13135H6.23793L7.9552 5.48508L4.36408 2.13135H2.49023L4.36408 6.39927L2.49023 14.9351H4.36408L7.9552 5.78813L6.23793 14.9351H8.11178L11.5464 5.18204L9.98561 14.9351H11.8595L15.2941 4.26279L11.8595 2.13135Z" fill="#050038"/>
</g>
<defs>
<clipPath id="clip0_5221_870">
<rect width="17.0667" height="17.0667" fill="white"/>
</clipPath>
</defs>
</svg>
