<svg width="286" height="134" viewBox="0 0 286 134" fill="none" xmlns="http://www.w3.org/2000/svg">
<path d="M215.699 0.315259C188.918 2.69322 164.217 25.0721 146.604 43.6854L143.231 46.9168C118.039 19.8797 86.1474 -8.34314 46.2049 2.30232C-12.4554 17.9448 -15.6536 105.545 38.8586 128.94C76.2232 144.974 107.269 120.236 136.389 92.046C136.182 91.8701 136.072 91.7724 136.072 91.7724L166.039 62.9111C174.535 52.5067 196.852 33.1572 208.747 29.157C259.841 11.964 279.302 86.7885 236.607 104.183C207.519 116.034 183.665 90.958 165.108 71.5434C159.403 77.8043 160.831 93.9289 166.976 108.158C180.525 120.888 195.527 132.178 213.47 133.631C311.401 141.553 308.209 -7.87406 215.699 0.328288V0.315259ZM81.5471 103.89C31.5899 123.038 6.831 50.2525 48.518 30.3818C78.9691 15.8665 108.458 47.3989 127.55 66.338C127.55 66.338 95.3738 98.5871 81.5406 103.89H81.5471Z" fill="white"/>
</svg>
