<svg width="82" height="39" viewBox="0 0 82 39" fill="none" xmlns="http://www.w3.org/2000/svg">
<path d="M61.8437 0.0917543C54.1652 0.783848 47.0831 7.29712 42.0333 12.7144L41.0663 13.6549C33.8434 5.78589 24.6996 -2.42823 13.2476 0.670079C-3.57112 5.22273 -4.4881 30.7183 11.1413 37.5274C21.8542 42.1938 30.7554 34.9942 39.1045 26.7895C39.0452 26.7383 39.0137 26.7099 39.0137 26.7099L47.6055 18.3099C50.0415 15.2818 56.44 9.65024 59.8504 8.486C74.4999 3.48207 80.0795 25.2593 67.8383 30.322C59.4985 33.7711 52.6591 26.4729 47.3388 20.8223C45.703 22.6445 46.1124 27.3375 47.8741 31.4787C51.7588 35.1838 56.0603 38.4698 61.2046 38.8926C89.2827 41.1983 88.3675 -2.2917 61.8437 0.0955466V0.0917543ZM23.3806 30.2367C9.05725 35.8095 1.95854 14.6257 13.9107 8.84248C22.6415 4.61786 31.0962 13.7952 36.5703 19.3073C36.5703 19.3073 27.3449 28.6933 23.3788 30.2367H23.3806Z" fill="black"/>
</svg>
