<svg xmlns="http://www.w3.org/2000/svg" width="52" height="23" viewBox="0 0 52 23" fill="none">
<path d="M39.218 0.0541115C34.3486 0.46227 29.8576 4.30343 26.6552 7.49824L26.042 8.05289C21.4617 3.41219 15.6632 -1.43203 8.40089 0.395175C-2.26461 3.08007 -2.84611 18.1159 7.06521 22.1315C13.8588 24.8835 19.5034 20.6376 24.798 15.7989C24.7604 15.7688 24.7404 15.752 24.7404 15.752L30.1889 10.7982C31.7337 9.01234 35.7912 5.69117 37.9539 5.00457C47.2438 2.05353 50.7822 14.8965 43.0194 17.8822C37.7307 19.9163 33.3936 15.6122 30.0197 12.2798C28.9824 13.3545 29.242 16.1221 30.3592 18.5644C32.8227 20.7494 35.5504 22.6873 38.8127 22.9367C56.6183 24.2965 56.038 -1.35152 39.218 0.056348V0.0541115ZM14.8267 17.8319C5.74362 21.1184 1.242 8.62543 8.82145 5.21479C14.358 2.72335 19.7196 8.13564 23.1909 11.3864C23.1909 11.3864 17.3407 16.9217 14.8256 17.8319H14.8267Z" fill="white"/>
</svg>
